# File created by Blade
# Date/Time:  Thu Jan 22 16:21:49 2015
#---------------------------------------------------------
:version 1.10
:name HOM
:units
  mass 1.0
  length 1.000000
  angle deg
:documentation
     Acclaim Skeleton File
:root
   axis xyz
   order TX TY TZ RX RY RZ
   position 0.000000 0.000000 0.000000
   orientation 0 0 0
:bonedata
   begin
      id 1
      name RightUpLeg_dum
      direction -1.000000 0.000000 0.000000
      length 3.766986
      axis 0.0 0.0 0.0 xyz
   end
   begin
      id 2
      name LeftUpLeg_dum
      direction 1.000000 0.000000 0.000000
      length 3.766986
      axis 0.0 0.0 0.0 xyz
   end
   begin
      id 3
      name Spine_dum
      direction 0.000000 1.000000 0.000000
      length 7.779697
      axis 0.0 0.0 0.0 xyz
   end
   begin
      id 4
      name RightUpLeg
      direction 0.000000 -1.000000 0.000000
      length 18.017682
      axis 0.0 0.0 0.0 xyz
      dof rx ry rz
   end
   begin
      id 5
      name RightLeg
      direction 0.000000 -1.000000 0.000000
      length 16.881075
      axis 0.0 0.0 0.0 xyz
      dof rx ry rz
   end
   begin
      id 6
      name RightFoot
      direction 0.000000 -0.258819 0.965926
      length 5.770812
      axis 15.0 0.0 0.0 xyz
      dof rx ry rz
   end
   begin
      id 7
      name RightToeBase
      direction 0.000000 0.000000 1.000000
      length 2.952750
      axis 0.0 0.0 0.0 xyz
      dof rx ry rz
   end
   begin
      id 8
      name LeftUpLeg
      direction 0.000000 -1.000000 0.000000
      length 18.017682
      axis 0.0 0.0 0.0 xyz
      dof rx ry rz
   end
   begin
      id 9
      name LeftLeg
      direction 0.000000 -1.000000 0.000000
      length 16.881075
      axis 0.0 0.0 0.0 xyz
      dof rx ry rz
   end
   begin
      id 10
      name LeftFoot
      direction 0.000000 -0.258819 0.965926
      length 5.770812
      axis 15.0 0.0 0.0 xyz
      dof rx ry rz
   end
   begin
      id 11
      name LeftToeBase
      direction 0.000000 0.000000 1.000000
      length 2.952750
      axis 0.0 0.0 0.0 xyz
      dof rx ry rz
   end
   begin
      id 12
      name Spine
      direction 0.000000 1.000000 0.000000
      length 0.000000
      axis 0.0 0.0 0.0 xyz
      dof rx ry rz
   end
   begin
      id 13
      name Spine_dum1
      direction 0.000000 1.000000 0.000000
      length 10.941760
      axis 0.0 0.0 0.0 xyz
   end
   begin
      id 14
      name Spine_dum2
      direction 0.000000 1.000000 0.000000
      length 10.941760
      axis 0.0 0.0 0.0 xyz
   end
   begin
      id 15
      name Spine_dum3
      direction 0.000000 1.000000 0.000000
      length 16.646042
      axis 0.0 0.0 0.0 xyz
   end
   begin
      id 16
      name RightShoulder
      direction -1.000000 0.000000 0.000000
      length 7.708937
      axis 0.0 0.0 90.0 xyz
      dof rx ry rz
   end
   begin
      id 17
      name RightArm
      direction -1.000000 0.000000 0.000000
      length 11.521345
      axis 0.0 0.0 90.0 xyz
      dof rx ry rz
   end
   begin
      id 18
      name RightForeArm
      direction -1.000000 0.000000 0.000000
      length 10.175898
      axis 0.0 0.0 90.0 xyz
      dof ry rz rx
   end
   begin
      id 19
      name RightHand
      direction -1.000000 0.000000 0.000000
      length 0.000000
      axis 0.0 0.0 90.0 xyz
      dof rx ry rz
   end
   begin
      id 20
      name RightHand_dum1
      direction -1.000000 0.000000 0.000000
      length 3.937000
      axis 0.0 0.0 90.0 xyz
   end
   begin
      id 21
      name RightHand_dum2
      direction 0.000000 0.000000 0.000000
      length 0.000000
      axis 0.0 0.0 90.0 xyz
   end
   begin
      id 22
      name RightHandThumb1
      direction 0.000000 0.000000 1.000000
      length 3.937000
      axis 0.0 0.0 90.0 xyz
      dof rx rz ry
   end
   begin
      id 23
      name LeftShoulder
      direction 1.000000 0.000000 0.000000
      length 7.708937
      axis 0.0 0.0 -90.0 xyz
      dof rx ry rz
   end
   begin
      id 24
      name LeftArm
      direction 1.000000 0.000000 0.000000
      length 11.521345
      axis 0.0 0.0 -90.0 xyz
      dof rx ry rz
   end
   begin
      id 25
      name LeftForeArm
      direction 1.000000 0.000000 0.000000
      length 10.175898
      axis 0.0 0.0 -90.0 xyz
      dof ry rz rx
   end
   begin
      id 26
      name LeftHand
      direction 1.000000 0.000000 0.000000
      length 0.000000
      axis 0.0 0.0 -90.0 xyz
      dof rx ry rz
   end
   begin
      id 27
      name LeftHand_dum1
      direction 1.000000 0.000000 0.000000
      length 3.937000
      axis 0.0 0.0 -90.0 xyz
   end
   begin
      id 28
      name LeftHand_dum2
      direction 0.000000 0.000000 0.000000
      length 0.000000
      axis 0.0 0.0 -90.0 xyz
   end
   begin
      id 29
      name LeftHandThumb1
      direction 0.000000 0.000000 1.000000
      length 3.937000
      axis 0.0 0.0 -90.0 xyz
      dof rx rz ry
   end
   begin
      id 30
      name Head
      direction 0.000000 1.000000 0.000000
      length 4.527550
      axis 0.0 0.0 0.0 xyz
      dof rx ry rz
   end
:hierarchy
   begin
      root RightUpLeg_dum LeftUpLeg_dum Spine_dum
      RightUpLeg_dum RightUpLeg
      LeftUpLeg_dum LeftUpLeg
      Spine_dum Spine
      RightUpLeg RightLeg
      RightLeg RightFoot
      RightFoot RightToeBase
      LeftUpLeg LeftLeg
      LeftLeg LeftFoot
      LeftFoot LeftToeBase
      Spine Spine_dum1 Spine_dum2 Spine_dum3
      Spine_dum1 RightShoulder
      Spine_dum2 LeftShoulder
      Spine_dum3 Head
      RightShoulder RightArm
      RightArm RightForeArm
      RightForeArm RightHand
      RightHand RightHand_dum1 RightHand_dum2
      RightHand_dum2 RightHandThumb1
      LeftShoulder LeftArm
      LeftArm LeftForeArm
      LeftForeArm LeftHand
      LeftHand LeftHand_dum1 LeftHand_dum2
      LeftHand_dum2 LeftHandThumb1
   end

# File created by Blade
# Date/Time:  Thu Jan 22 16:21:39 2015
# Frame Rate: 120.000 fps
#------------------------------------------------------
:FULLY-SPECIFIED
:DEGREES
260
root 20.455677 34.827831 -1.758882 7.909866 -5.258124 13.627360
RightUpLeg 19.743507 18.155945 8.503150
RightLeg -5.045043 -0.000000 0.000000
RightFoot -11.288152 -10.896858 1.611709
RightToeBase -5.543189 -0.000000 0.000000
LeftUpLeg -26.726423 -13.584146 -24.663575
LeftLeg 24.359268 -0.000000 -0.000000
LeftFoot -7.503186 10.889986 -7.223744
LeftToeBase 5.658777 -0.000000 -0.000000
Spine 7.342959 0.969775 -23.580435
RightShoulder -5.008254 -8.421737 -37.007197
RightArm 2.597952 41.206628 26.899863
RightForeArm 17.908360 -0.000000 19.483806
RightHand 8.207781 -0.000000 -16.628680
RightHandThumb1 -24.326973 -0.000000 -32.862282
LeftShoulder -32.461800 36.219059 -6.814425
LeftArm 45.347975 -34.557324 -80.940500
LeftForeArm 41.955019 -0.000000 13.885337
LeftHand -26.026847 -0.000000 6.685838
LeftHandThumb1 -26.253704 0.000000 33.147579
Head -3.234261 22.256603 -26.079862
261
root 20.508701 34.802039 -1.867604 7.910913 -4.949357 13.509085
RightUpLeg 19.704945 17.940202 8.616996
RightLeg -5.233813 -0.000000 0.000000
RightFoot -11.596052 -11.064697 1.441351
RightToeBase -5.200627 -0.000000 0.000000
LeftUpLeg -26.841288 -13.755788 -24.602676
LeftLeg 24.419713 -0.000000 -0.000000
LeftFoot -7.358115 10.827657 -7.194245
LeftToeBase 5.762044 -0.000000 -0.000000
Spine 7.399093 0.723271 -23.706201
RightShoulder -5.090236 -8.509416 -36.921293
RightArm 2.670450 41.265311 27.016618
RightForeArm 18.032098 -0.000000 19.322220
RightHand 8.212248 -0.000000 -16.783856
RightHandThumb1 -24.326973 -0.000000 -32.862282
LeftShoulder -32.249566 36.207848 -6.701600
LeftArm 45.306614 -34.179640 -80.852950
LeftForeArm 42.008566 -0.000000 13.837068
LeftHand -26.067421 -0.000000 6.566263
LeftHandThumb1 -26.253704 0.000000 33.147579
Head -3.304198 22.077711 -25.878146
262
root 20.556138 34.778342 -1.976457 7.905849 -4.682566 13.351187
RightUpLeg 19.699914 17.832330 8.798037
RightLeg -5.463158 -0.000000 0.000000
RightFoot -11.831510 -11.328655 1.314318
RightToeBase -4.944773 -0.000000 0.000000
LeftUpLeg -26.962138 -13.877967 -24.502239
LeftLeg 24.481803 -0.000000 -0.000000
LeftFoot -7.223342 10.774297 -7.114652
LeftToeBase 5.824506 -0.000000 -0.000000
Spine 7.455792 0.523976 -23.807113
RightShoulder -5.112154 -8.526544 -36.875836
RightArm 2.554552 41.350961 27.098225
RightForeArm 18.048622 0.000000 19.288303
RightHand 8.061390 -0.000000 -17.007354
RightHandThumb1 -24.326973 -0.000000 -32.862282
LeftShoulder -32.093013 36.282924 -6.690754
LeftArm 45.438719 -33.848169 -80.847556
LeftForeArm 42.048567 -0.000000 13.778063
LeftHand -25.957925 -0.000000 6.517924
LeftHandThumb1 -26.253704 0.000000 33.147579
Head -3.367095 21.923757 -25.690952
263
root 20.597938 34.755746 -2.098304 7.994042 -4.383574 13.123892
RightUpLeg 19.558586 17.695062 9.024968
RightLeg -5.657083 -0.000000 0.000000
RightFoot -12.057369 -11.606277 1.164592
RightToeBase -4.575108 -0.000000 0.000000
LeftUpLeg -27.206626 -14.081588 -24.287377
LeftLeg 24.586487 -0.000000 -0.000000
LeftFoot -7.087446 10.714858 -7.102178
LeftToeBase 5.923445 -0.000000 -0.000000
Spine 7.456138 0.237324 -23.817575
RightShoulder -5.107264 -8.543311 -36.857648
RightArm 2.451507 41.437037 27.173849
RightForeArm 18.089152 -0.000000 19.175322
RightHand 8.084408 -0.000000 -17.144730
RightHandThumb1 -24.326973 -0.000000 -32.862282
LeftShoulder -31.935443 36.334868 -6.720772
LeftArm 45.467449 -33.497449 -80.753273
LeftForeArm 42.031775 -0.000000 13.787432
LeftHand -25.966961 -0.000000 6.602015
LeftHandThumb1 -26.253704 0.000000 33.147579
Head -3.498533 21.747156 -25.619370
264
root 20.642917 34.736372 -2.203373 7.962742 -4.119959 12.935702
RightUpLeg 19.582558 17.574653 9.223757
RightLeg -5.880873 -0.000000 0.000000
RightFoot -12.259212 -11.794741 1.130959
RightToeBase -3.972514 -0.000000 0.000000
LeftUpLeg -27.294143 -14.242447 -24.144875
LeftLeg 24.631508 -0.000000 -0.000000
LeftFoot -6.952881 10.704365 -7.082029
LeftToeBase 5.963398 -0.000000 -0.000000
Spine 7.549360 0.000264 -23.881466
RightShoulder -5.082820 -8.571952 -36.803471
RightArm 2.358236 41.491061 27.192291
RightForeArm 18.174334 -0.000000 19.080503
RightHand 7.953377 -0.000000 -17.104098
RightHandThumb1 -24.326973 -0.000000 -32.862282
LeftShoulder -31.764297 36.327405 -6.734288
LeftArm 45.515019 -33.267105 -80.757036
LeftForeArm 42.156750 0.000000 13.758812
LeftHand -26.041674 -0.000000 6.647281
LeftHandThumb1 -26.253704 0.000000 33.147579
Head -3.619578 21.607261 -25.570107
265
root 20.682308 34.718794 -2.312839 7.943840 -3.901338 12.711386
RightUpLeg 19.555959 17.435186 9.431173
RightLeg -6.080223 -0.000000 0.000000
RightFoot -12.428461 -11.921916 0.989908
RightToeBase -3.938895 -0.000000 0.000000
LeftUpLeg -27.414505 -14.306570 -23.973092
LeftLeg 24.685075 -0.000000 -0.000000
LeftFoot -6.813347 10.642505 -7.011418
LeftToeBase 6.037703 -0.000000 -0.000000
Spine 7.642179 -0.198722 -23.918729
RightShoulder -5.084714 -8.582965 -36.760866
RightArm 2.291961 41.531847 27.232498
RightForeArm 18.154614 -0.000000 18.937977
RightHand 7.998259 -0.000000 -17.104078
RightHandThumb1 -24.326973 -0.000000 -32.862282
LeftShoulder -31.539840 36.231954 -6.668787
LeftArm 45.371229 -32.942672 -80.603295
LeftForeArm 42.056034 -0.000000 13.738645
LeftHand -26.138073 -0.000000 6.921926
LeftHandThumb1 -26.253704 0.000000 33.147579
Head -3.759668 21.474382 -25.546343
266
root 20.719045 34.703508 -2.426093 7.948760 -3.685466 12.461683
RightUpLeg 19.473259 17.319530 9.654676
RightLeg -6.219251 -0.000000 0.000000
RightFoot -12.636142 -12.074057 1.025392
RightToeBase -3.323058 -0.000000 0.000000
LeftUpLeg -27.572684 -14.449397 -23.740584
LeftLeg 24.739413 -0.000000 -0.000000
LeftFoot -6.664827 10.629008 -6.997512
LeftToeBase 6.078866 -0.000000 -0.000000
Spine 7.718963 -0.422990 -23.938324
RightShoulder -5.073300 -8.574347 -36.712548
RightArm 2.222015 41.558348 27.261570
RightForeArm 18.277756 -0.000000 18.804928
RightHand 8.208379 -0.000000 -17.122708
RightHandThumb1 -24.326973 -0.000000 -32.862282
LeftShoulder -31.403694 36.260984 -6.695208
LeftArm 45.496692 -32.765785 -80.757742
LeftForeArm 42.219158 -0.000000 13.748178
LeftHand -26.394209 -0.000000 6.366675
LeftHandThumb1 -26.253704 0.000000 33.147579
Head -3.909769 21.365568 -25.541295
267
root 20.754511 34.690717 -2.538356 7.919184 -3.516988 12.226856
RightUpLeg 19.429110 17.318704 9.881306
RightLeg -6.360025 -0.000000 0.000000
RightFoot -12.840690 -12.260417 0.995098
RightToeBase -3.207454 -0.000000 0.000000
LeftUpLeg -27.698763 -14.608788 -23.515318
LeftLeg 24.767151 -0.000000 -0.000000
LeftFoot -6.520499 10.696916 -6.995212
LeftToeBase 6.128546 -0.000000 -0.000000
Spine 7.831915 -0.618174 -23.990695
RightShoulder -5.049378 -8.445489 -36.718556
RightArm 2.067787 41.446076 27.292225
RightForeArm 18.255245 -0.000000 18.725010
RightHand 7.970151 -0.000000 -17.011510
RightHandThumb1 -24.326973 -0.000000 -32.862282
LeftShoulder -31.173361 36.165241 -6.598916
LeftArm 45.327713 -32.507436 -80.707117
LeftForeArm 42.139234 -0.000000 13.759113
LeftHand -26.292305 -0.000000 6.928632
LeftHandThumb1 -26.253704 0.000000 33.147579
Head -4.097328 21.330841 -25.553058
268
root 20.787463 34.681831 -2.649712 7.873804 -3.414698 12.007849
RightUpLeg 19.360399 17.349094 10.060237
RightLeg -6.419498 -0.000000 0.000000
RightFoot -13.067055 -12.300593 1.020268
RightToeBase -2.579866 -0.000000 0.000000
LeftUpLeg -27.800487 -14.737691 -23.293935
LeftLeg 24.728268 -0.000000 -0.000000
LeftFoot -6.357563 10.789788 -7.004842
LeftToeBase 6.209368 -0.000000 -0.000000
Spine 7.936353 -0.758289 -24.099262
RightShoulder -5.014424 -8.435386 -36.677475
RightArm 2.015909 41.484926 27.369466
RightForeArm 18.273786 -0.000000 18.605665
RightHand 7.973316 -0.000000 -16.925963
RightHandThumb1 -24.326973 -0.000000 -32.862282
LeftShoulder -30.944712 36.152300 -6.477556
LeftArm 45.252690 -32.342765 -80.841011
LeftForeArm 42.491828 0.000000 13.846182
LeftHand -26.270792 -0.000000 5.001449
LeftHandThumb1 -26.253704 0.000000 33.147579
Head -4.293840 21.223093 -25.555405
269
root 20.819032 34.673751 -2.756052 7.798913 -3.295720 11.776695
RightUpLeg 19.330524 17.390508 10.270970
RightLeg -6.493027 -0.000000 0.000000
RightFoot -13.270400 -12.357038 1.050974
RightToeBase -2.229829 -0.000000 0.000000
LeftUpLeg -27.857322 -14.963839 -23.044007
LeftLeg 24.673961 -0.000000 -0.000000
LeftFoot -6.208317 10.973731 -7.030933
LeftToeBase 6.266308 -0.000000 -0.000000
Spine 8.083846 -0.931231 -24.193559
RightShoulder -4.989617 -8.439923 -36.630961
RightArm 2.002133 41.395014 27.446936
RightForeArm 18.406652 -0.000000 18.523000
RightHand 7.991459 -0.000000 -17.180168
RightHandThumb1 -24.326973 -0.000000 -32.862282
LeftShoulder -30.794231 36.137840 -6.435797
LeftArm 45.225856 -32.123380 -80.919650
LeftForeArm 42.456842 0.000000 13.857138
LeftHand -26.424990 -0.000000 5.416973
LeftHandThumb1 -26.253704 0.000000 33.147579
Head -4.501669 21.189149 -25.591156
